<mxfile host="app.diagrams.net" agent="Mozilla/5.0 (Windows NT 10.0; Win64; x64; rv:128.0) Gecko/20100101 Firefox/128.0" version="24.7.5">
  <diagram name="Page-1" id="paYRWq16h5qkBUBvGVSX">
    <mxGraphModel dx="1050" dy="566" grid="1" gridSize="10" guides="1" tooltips="1" connect="1" arrows="1" fold="1" page="1" pageScale="1" pageWidth="850" pageHeight="1100" math="0" shadow="0">
      <root>
        <mxCell id="0" />
        <mxCell id="1" parent="0" />
        <mxCell id="A2xx7unQY58moL9qyg2i-1" value="TRAVEL MANAGEMNET - VEHICLE TRAVELLING PERMIT REQUEST" style="swimlane;childLayout=stackLayout;resizeParent=1;resizeParentMax=0;horizontal=1;startSize=20;horizontalStack=0;html=1;fillColor=#8ED0F0;" parent="1" vertex="1">
          <mxGeometry x="20" y="640" width="930" height="720" as="geometry" />
        </mxCell>
        <mxCell id="A2xx7unQY58moL9qyg2i-2" value="DIRECTOR/HEAD/EMPLOYEE" style="swimlane;startSize=20;horizontal=0;html=1;swimlaneFillColor=#8ed0f0;fillColor=#8ed0f0;" parent="A2xx7unQY58moL9qyg2i-1" vertex="1">
          <mxGeometry y="20" width="930" height="230" as="geometry" />
        </mxCell>
        <mxCell id="A2xx7unQY58moL9qyg2i-5" value="start" style="ellipse;whiteSpace=wrap;html=1;" parent="A2xx7unQY58moL9qyg2i-2" vertex="1">
          <mxGeometry x="30" y="40" width="80" height="50" as="geometry" />
        </mxCell>
        <mxCell id="A2xx7unQY58moL9qyg2i-8" value="" style="edgeStyle=orthogonalEdgeStyle;rounded=0;orthogonalLoop=1;jettySize=auto;html=1;" parent="A2xx7unQY58moL9qyg2i-2" source="A2xx7unQY58moL9qyg2i-6" target="A2xx7unQY58moL9qyg2i-7" edge="1">
          <mxGeometry relative="1" as="geometry" />
        </mxCell>
        <mxCell id="A2xx7unQY58moL9qyg2i-6" value="&lt;div&gt;fill vehicle&lt;/div&gt;&lt;div&gt;travelling&lt;/div&gt;&lt;div&gt;permit&lt;/div&gt;&lt;div&gt;form&lt;br&gt;&lt;/div&gt;" style="whiteSpace=wrap;html=1;aspect=fixed;" parent="A2xx7unQY58moL9qyg2i-2" vertex="1">
          <mxGeometry x="140" y="35" width="60" height="60" as="geometry" />
        </mxCell>
        <mxCell id="A2xx7unQY58moL9qyg2i-7" value="&lt;div&gt;submit&lt;/div&gt;&lt;div&gt;form&lt;br&gt;&lt;/div&gt;" style="whiteSpace=wrap;html=1;aspect=fixed;" parent="A2xx7unQY58moL9qyg2i-2" vertex="1">
          <mxGeometry x="260" y="35" width="60" height="60" as="geometry" />
        </mxCell>
        <mxCell id="A2xx7unQY58moL9qyg2i-13" value="end" style="ellipse;whiteSpace=wrap;html=1;" parent="A2xx7unQY58moL9qyg2i-2" vertex="1">
          <mxGeometry x="800" y="50" width="80" height="40" as="geometry" />
        </mxCell>
        <mxCell id="A2xx7unQY58moL9qyg2i-15" value="&lt;div&gt;notify,&lt;/div&gt;&lt;div&gt;not&lt;/div&gt;&lt;div&gt;entitled&lt;br&gt;&lt;/div&gt;" style="whiteSpace=wrap;html=1;aspect=fixed;" parent="A2xx7unQY58moL9qyg2i-2" vertex="1">
          <mxGeometry x="400" y="95" width="60" height="60" as="geometry" />
        </mxCell>
        <mxCell id="A2xx7unQY58moL9qyg2i-17" value="" style="endArrow=classic;html=1;rounded=0;exitX=1;exitY=0.25;exitDx=0;exitDy=0;entryX=0;entryY=1;entryDx=0;entryDy=0;" parent="A2xx7unQY58moL9qyg2i-2" source="A2xx7unQY58moL9qyg2i-15" target="A2xx7unQY58moL9qyg2i-13" edge="1">
          <mxGeometry width="50" height="50" relative="1" as="geometry">
            <mxPoint x="460" y="300" as="sourcePoint" />
            <mxPoint x="510" y="250" as="targetPoint" />
            <Array as="points">
              <mxPoint x="812" y="110" />
            </Array>
          </mxGeometry>
        </mxCell>
        <mxCell id="A2xx7unQY58moL9qyg2i-23" value="&lt;div&gt;get&lt;/div&gt;&lt;div&gt;vehicle&lt;br&gt;&lt;/div&gt;" style="whiteSpace=wrap;html=1;aspect=fixed;" parent="A2xx7unQY58moL9qyg2i-2" vertex="1">
          <mxGeometry x="620" y="40" width="55" height="55" as="geometry" />
        </mxCell>
        <mxCell id="A2xx7unQY58moL9qyg2i-25" value="" style="endArrow=classic;html=1;rounded=0;exitX=1;exitY=0.5;exitDx=0;exitDy=0;entryX=0;entryY=0.5;entryDx=0;entryDy=0;" parent="A2xx7unQY58moL9qyg2i-2" source="A2xx7unQY58moL9qyg2i-23" target="A2xx7unQY58moL9qyg2i-13" edge="1">
          <mxGeometry width="50" height="50" relative="1" as="geometry">
            <mxPoint x="460" y="230" as="sourcePoint" />
            <mxPoint x="510" y="180" as="targetPoint" />
          </mxGeometry>
        </mxCell>
        <mxCell id="A2xx7unQY58moL9qyg2i-27" value="&lt;div&gt;notify,&lt;/div&gt;&lt;div&gt;request&lt;/div&gt;&lt;div&gt;rejected&lt;br&gt;&lt;/div&gt;" style="whiteSpace=wrap;html=1;aspect=fixed;" parent="A2xx7unQY58moL9qyg2i-2" vertex="1">
          <mxGeometry x="730" y="120" width="60" height="60" as="geometry" />
        </mxCell>
        <mxCell id="A2xx7unQY58moL9qyg2i-28" value="" style="endArrow=classic;html=1;rounded=0;exitX=1;exitY=0.5;exitDx=0;exitDy=0;entryX=1;entryY=1;entryDx=0;entryDy=0;" parent="A2xx7unQY58moL9qyg2i-2" source="A2xx7unQY58moL9qyg2i-27" target="A2xx7unQY58moL9qyg2i-13" edge="1">
          <mxGeometry width="50" height="50" relative="1" as="geometry">
            <mxPoint x="460" y="270" as="sourcePoint" />
            <mxPoint x="510" y="220" as="targetPoint" />
            <Array as="points">
              <mxPoint x="868" y="150" />
            </Array>
          </mxGeometry>
        </mxCell>
        <mxCell id="A2xx7unQY58moL9qyg2i-3" value="DAHRM" style="swimlane;startSize=20;horizontal=0;html=1;swimlaneFillColor=#8ED0F0;fillColor=#8ed0f0;" parent="A2xx7unQY58moL9qyg2i-1" vertex="1">
          <mxGeometry y="250" width="930" height="250" as="geometry" />
        </mxCell>
        <mxCell id="A2xx7unQY58moL9qyg2i-10" value="&lt;div&gt;check&lt;/div&gt;&lt;div&gt;employee&lt;/div&gt;&lt;div&gt;entitled&lt;/div&gt;&lt;div&gt;to &lt;br&gt;&lt;/div&gt;&lt;div&gt;use&lt;/div&gt;&lt;div&gt;vehicle&lt;/div&gt;&lt;div&gt;?&lt;br&gt;&lt;/div&gt;" style="rhombus;whiteSpace=wrap;html=1;" parent="A2xx7unQY58moL9qyg2i-3" vertex="1">
          <mxGeometry x="120" y="50" width="130" height="120" as="geometry" />
        </mxCell>
        <mxCell id="A2xx7unQY58moL9qyg2i-4" value="TRANSPORT OFFICER" style="swimlane;startSize=20;horizontal=0;html=1;swimlaneFillColor=#8ED0F0;fillColor=#8ed0f0;" parent="A2xx7unQY58moL9qyg2i-1" vertex="1">
          <mxGeometry y="500" width="930" height="220" as="geometry" />
        </mxCell>
        <mxCell id="A2xx7unQY58moL9qyg2i-20" value="&lt;div&gt;approve&lt;/div&gt;&lt;div&gt;vehicle&lt;/div&gt;&lt;div&gt;request&lt;/div&gt;&lt;div&gt;?&lt;br&gt;&lt;/div&gt;" style="rhombus;whiteSpace=wrap;html=1;" parent="A2xx7unQY58moL9qyg2i-4" vertex="1">
          <mxGeometry x="30" y="70" width="80" height="80" as="geometry" />
        </mxCell>
        <mxCell id="A2xx7unQY58moL9qyg2i-12" value="" style="endArrow=classic;html=1;rounded=0;exitX=0.5;exitY=1;exitDx=0;exitDy=0;entryX=0.5;entryY=0;entryDx=0;entryDy=0;" parent="A2xx7unQY58moL9qyg2i-1" source="A2xx7unQY58moL9qyg2i-7" target="A2xx7unQY58moL9qyg2i-10" edge="1">
          <mxGeometry width="50" height="50" relative="1" as="geometry">
            <mxPoint x="380" y="270" as="sourcePoint" />
            <mxPoint x="430" y="220" as="targetPoint" />
            <Array as="points">
              <mxPoint x="290" y="280" />
              <mxPoint x="185" y="280" />
            </Array>
          </mxGeometry>
        </mxCell>
        <mxCell id="A2xx7unQY58moL9qyg2i-14" value="" style="endArrow=classic;html=1;rounded=0;exitX=1;exitY=0.5;exitDx=0;exitDy=0;entryX=0.25;entryY=1;entryDx=0;entryDy=0;" parent="A2xx7unQY58moL9qyg2i-1" source="A2xx7unQY58moL9qyg2i-10" target="A2xx7unQY58moL9qyg2i-15" edge="1">
          <mxGeometry width="50" height="50" relative="1" as="geometry">
            <mxPoint x="460" y="320" as="sourcePoint" />
            <mxPoint x="720" y="230" as="targetPoint" />
            <Array as="points">
              <mxPoint x="415" y="360" />
            </Array>
          </mxGeometry>
        </mxCell>
        <mxCell id="A2xx7unQY58moL9qyg2i-16" value="NO" style="edgeLabel;html=1;align=center;verticalAlign=middle;resizable=0;points=[];" parent="A2xx7unQY58moL9qyg2i-14" vertex="1" connectable="0">
          <mxGeometry x="-0.32" y="-1" relative="1" as="geometry">
            <mxPoint as="offset" />
          </mxGeometry>
        </mxCell>
        <mxCell id="A2xx7unQY58moL9qyg2i-21" value="" style="endArrow=classic;html=1;rounded=0;exitX=1;exitY=0.5;exitDx=0;exitDy=0;" parent="A2xx7unQY58moL9qyg2i-1" source="A2xx7unQY58moL9qyg2i-20" target="A2xx7unQY58moL9qyg2i-23" edge="1">
          <mxGeometry width="50" height="50" relative="1" as="geometry">
            <mxPoint x="460" y="600" as="sourcePoint" />
            <mxPoint x="670" y="310" as="targetPoint" />
            <Array as="points">
              <mxPoint x="648" y="610" />
            </Array>
          </mxGeometry>
        </mxCell>
        <mxCell id="A2xx7unQY58moL9qyg2i-22" value="YES" style="edgeLabel;html=1;align=center;verticalAlign=middle;resizable=0;points=[];" parent="A2xx7unQY58moL9qyg2i-21" vertex="1" connectable="0">
          <mxGeometry x="-0.4286" y="-3" relative="1" as="geometry">
            <mxPoint as="offset" />
          </mxGeometry>
        </mxCell>
        <mxCell id="A2xx7unQY58moL9qyg2i-29" value="" style="endArrow=classic;html=1;rounded=0;exitX=0.5;exitY=1;exitDx=0;exitDy=0;entryX=0.5;entryY=1;entryDx=0;entryDy=0;" parent="A2xx7unQY58moL9qyg2i-1" source="A2xx7unQY58moL9qyg2i-20" target="A2xx7unQY58moL9qyg2i-27" edge="1">
          <mxGeometry width="50" height="50" relative="1" as="geometry">
            <mxPoint x="460" y="550" as="sourcePoint" />
            <mxPoint x="840" y="650" as="targetPoint" />
            <Array as="points">
              <mxPoint x="70" y="700" />
              <mxPoint x="760" y="700" />
            </Array>
          </mxGeometry>
        </mxCell>
        <mxCell id="A2xx7unQY58moL9qyg2i-30" value="NO" style="edgeLabel;html=1;align=center;verticalAlign=middle;resizable=0;points=[];" parent="A2xx7unQY58moL9qyg2i-29" vertex="1" connectable="0">
          <mxGeometry x="0.3387" y="-1" relative="1" as="geometry">
            <mxPoint as="offset" />
          </mxGeometry>
        </mxCell>
        <mxCell id="A2xx7unQY58moL9qyg2i-9" value="" style="endArrow=classic;html=1;rounded=0;exitX=1;exitY=0.5;exitDx=0;exitDy=0;" parent="1" source="A2xx7unQY58moL9qyg2i-5" edge="1">
          <mxGeometry width="50" height="50" relative="1" as="geometry">
            <mxPoint x="400" y="840" as="sourcePoint" />
            <mxPoint x="160" y="715" as="targetPoint" />
          </mxGeometry>
        </mxCell>
      </root>
    </mxGraphModel>
  </diagram>
</mxfile>
